<?xml version="1.0" encoding="utf-8"?>
<!-- Generator: Adobe Illustrator 16.0.0, SVG Export Plug-In . SVG Version: 6.00 Build 0)  -->
<!DOCTYPE svg PUBLIC "-//W3C//DTD SVG 1.1//EN" "http://www.w3.org/Graphics/SVG/1.1/DTD/svg11.dtd">
<svg version="1.1" id="Layer_1" xmlns="http://www.w3.org/2000/svg" xmlns:xlink="http://www.w3.org/1999/xlink" x="0px" y="0px"
	 width="6214.635px" height="1338.578px" viewBox="0 0 6214.635 1338.578" enable-background="new 0 0 6214.635 1338.578"
	 xml:space="preserve">
<g>
	<path fill="#7FCBAE" d="M669.274,0C299.647,0,0,301.27,0,672.895h1338.563C1338.563,301.27,1038.912,0,669.274,0z"/>
	<path fill="#59585B" d="M669.289,1338.578c369.627,0,669.274-299.65,669.274-669.289H0
		C0,1038.928,299.663,1338.578,669.289,1338.578z"/>
	<path fill="#FFFFFF" d="M704.178,914.585c-135.477,0-245.301-109.823-245.301-245.279c0-135.478,109.824-245.301,245.301-245.301
		c67.745,0,129.055,27.458,173.455,71.849c47.825-47.838,96.884-96.878,137.338-137.336
		c-79.537-79.552-189.431-128.748-310.793-128.748c-242.75,0-439.541,196.781-439.541,439.537
		c0,242.739,196.791,439.524,439.541,439.524c121.362,0,231.256-49.185,310.793-128.727L877.633,842.74
		C833.233,887.132,771.923,914.585,704.178,914.585z"/>
</g>
<g>
	<path fill="#414042" d="M2054.794,704.094l-60.184,75.014c-44.487-47.975-108.16-77.631-170.089-77.631
		c-122.119,0-218.063,94.206-218.063,214.575s95.944,215.448,218.063,215.448c61.058,0,123.858-27.913,170.089-72.399l61.056,68.038
		c-61.928,61.057-150.024,100.307-236.382,100.307c-178.81,0-317.497-135.201-317.497-310.521
		c0-173.576,140.431-307.033,320.99-307.033C1909.129,609.891,1995.483,645.652,2054.794,704.094z"/>
	<path fill="#414042" d="M2242.346,1085.269l-58.439,137.816h-107.289l269.528-610.578h105.538l266.911,610.578h-109.903
		l-58.44-137.816H2242.346z M2395.86,722.412l-115.137,271.271H2511L2395.86,722.412z"/>
	<path fill="#414042" d="M3350.118,1223.085l-0.871-456.188l-192.768,392.513h-67.168l-192.768-392.513v456.188h-96.818V612.507
		h122.113l201.489,405.6l200.623-405.6h121.24v610.578H3350.118z"/>
	<path fill="#414042" d="M3849.928,612.507c153.515,0,241.611,75.888,241.611,208.47c0,137.817-88.097,218.06-241.611,218.06
		h-140.433v184.049H3606.57V612.507H3849.928z M3709.496,946.58h136.068c94.206,0,147.413-40.121,147.413-122.985
		c0-80.247-53.207-118.63-147.413-118.63h-136.068V946.58z"/>
	<path fill="#414042" d="M4458.762,612.507c126.479,0,204.982,57.569,204.982,152.648c0,68.905-40.999,120.369-107.287,136.065
		c81.991,13.959,130.838,72.399,130.838,154.391c0,104.673-84.607,167.474-222.424,167.474h-271.273V612.507H4458.762z
		 M4296.526,865.461h157.004c65.421,0,104.671-30.528,104.671-81.993c0-51.463-39.25-79.374-104.671-79.374h-157.004V865.461z
		 M4296.526,1131.5h157.004c80.247,0,128.223-31.401,128.223-88.969c0-54.081-47.976-86.357-128.223-86.357h-157.004V1131.5z"/>
	<path fill="#414042" d="M4912.346,704.965V869.82h298.307v92.462h-298.307v168.345h343.666v92.458h-446.594V612.507h436.129v92.458
		H4912.346z"/>
	<path fill="#414042" d="M5748.842,1129.755v93.33h-367.219V612.507h102.928v517.248H5748.842z"/>
	<path fill="#414042" d="M6214.635,1129.755v93.33h-367.217V612.507h102.927v517.248H6214.635z"/>
</g>
<g>
	<path fill="#414042" d="M1527.172,145.288h217.888v21h-195.133v120.314h175.447v21.005h-175.447v122.944h197.321v21.006h-220.076
		V145.288z"/>
	<path fill="#414042" d="M1800.607,406.925l14.876-17.059c33.688,31.063,64.757,45.5,109.818,45.5
		c45.943,0,77.444-25.814,77.444-60.814v-0.877c0-32.373-17.063-51.191-86.63-65.19c-73.508-14.882-103.26-39.815-103.26-86.192
		v-0.881c0-45.505,41.568-80.505,98.446-80.505c44.628,0,73.947,12.254,105.01,37.188l-14.443,17.94
		c-28.874-24.937-57.749-34.561-91.438-34.561c-45.072,0-74.824,25.814-74.824,57.749v0.878c0,32.377,16.631,52.068,89.256,66.944
		c70.889,14.438,100.634,39.813,100.634,84.442v0.876c0,49.438-42.434,83.566-101.506,83.566
		C1874.986,455.929,1837.356,439.742,1800.607,406.925z"/>
	<path fill="#414042" d="M2178.617,166.288h-106.759v-21h236.268v21h-106.759v285.27h-22.75V166.288z"/>
	<path fill="#414042" d="M2372.422,324.232V145.288h22.756v176.756c0,72.192,38.938,113.755,103.693,113.755
		c62.131,0,101.939-37.621,101.939-111.567V145.288h22.755v176.318c0,87.945-51.19,134.761-125.57,134.761
		C2424.487,456.368,2372.422,409.989,2372.422,324.232z"/>
	<path fill="#414042" d="M2709.727,145.288h101.95c96.253,0,162.758,66.062,162.758,152.257v0.872
		c0,86.198-66.505,153.141-162.758,153.141h-101.95V145.288z M2811.677,430.552c85.318,0,139.131-58.188,139.131-131.258v-0.877
		c0-72.631-53.812-132.129-139.131-132.129h-79.199v264.264H2811.677z"/>
	<path fill="#414042" d="M3054.915,145.288h22.756v306.27h-22.756V145.288z"/>
	<path fill="#414042" d="M3158.166,299.294v-0.877c0-83.564,61.691-158.383,154.446-158.383
		c92.759,0,153.579,73.942,153.579,157.511v0.872c0,83.575-61.691,158.384-154.452,158.384
		C3218.98,456.801,3158.166,382.864,3158.166,299.294z M3442.563,299.294v-0.877c0-75.69-55.133-137.826-130.824-137.826
		c-75.689,0-129.951,61.259-129.951,136.954v0.872c0,75.691,55.134,137.827,130.824,137.827
		C3388.308,436.244,3442.563,374.99,3442.563,299.294z"/>
</g>
<g>
</g>
<g>
</g>
<g>
</g>
<g>
</g>
<g>
</g>
<g>
</g>
</svg>
